<svg id="banner-text" xmlns="http://www.w3.org/2000/svg" width="663" height="154.7" viewBox="0 0 663 154.7"><title>banner-text</title><g id="text"><path d="M33.7,80.4a4.3,4.3,0,0,1-1.2-3.2v-42A4.3,4.3,0,0,1,33.7,32,4.5,4.5,0,0,1,37,30.8H63a5,5,0,0,1,3.2.9,3.2,3.2,0,0,1,1.2,2.7,3.4,3.4,0,0,1-1.2,2.8,4.9,4.9,0,0,1-3.2,1H41.6v14H61.5a5,5,0,0,1,3.2.9,3.3,3.3,0,0,1,1.2,2.7,3.2,3.2,0,0,1-1.2,2.7,5,5,0,0,1-3.2.9H41.6V74.2H63a4.9,4.9,0,0,1,3.2,1A3.4,3.4,0,0,1,67.4,78a3.2,3.2,0,0,1-1.2,2.7,5,5,0,0,1-3.2.9H37A4.5,4.5,0,0,1,33.7,80.4Z" transform="translate(-0.5 -0.5)" fill="#fff"/><path d="M104.5,77.9a4,4,0,0,1-1.2,2.8,3.9,3.9,0,0,1-2.9,1.3,4,4,0,0,1-3.1-1.5L87.2,69.3,77,80.5A4.2,4.2,0,0,1,73.9,82a4.2,4.2,0,0,1-4-4,4.1,4.1,0,0,1,1.3-3L81.7,63.5,71.8,52.7a4.1,4.1,0,0,1-1.3-3,3.8,3.8,0,0,1,1.2-2.8,3.9,3.9,0,0,1,2.8-1.2,4.2,4.2,0,0,1,3.1,1.4l9.6,10.5,9.6-10.5a4.2,4.2,0,0,1,3.1-1.4,4.1,4.1,0,0,1,4,4,4.1,4.1,0,0,1-1.3,3L92.6,63.5,103.2,75A4.1,4.1,0,0,1,104.5,77.9Z" transform="translate(-0.5 -0.5)" fill="#fff"/><path d="M137.9,47.8a15.3,15.3,0,0,1,5.5,6.5,22.5,22.5,0,0,1,2,9.7,21.8,21.8,0,0,1-2,9.6,14.5,14.5,0,0,1-13.6,8.6,14,14,0,0,1-6.7-1.6,11.1,11.1,0,0,1-4.5-4.4V90.9a3.7,3.7,0,0,1-1.2,3,4.7,4.7,0,0,1-3.2,1.1,4.7,4.7,0,0,1-3.3-1.2,3.9,3.9,0,0,1-1.3-3V49.9a4.1,4.1,0,0,1,1.2-3.1,4.4,4.4,0,0,1,3.2-1.2,4.5,4.5,0,0,1,3.2,1.2,4.1,4.1,0,0,1,1.2,3.1v1.8a11,11,0,0,1,4.6-4.6,14,14,0,0,1,6.8-1.6A14.6,14.6,0,0,1,137.9,47.8ZM134,72.3q2.4-2.9,2.4-8.2T134,55.5a8.9,8.9,0,0,0-13.3-.1q-2.3,3-2.3,8.4t2.3,8.4a9,9,0,0,0,13.3,0Z" transform="translate(-0.5 -0.5)" fill="#fff"/><path d="M177.6,49.2q3.6,3.6,3.6,11.1V77.8a4.1,4.1,0,0,1-1.2,3.1,4.4,4.4,0,0,1-3.2,1.1,4.2,4.2,0,0,1-3.1-1.2,4,4,0,0,1-1.2-3V76.2a9.4,9.4,0,0,1-3.9,4.4,11.6,11.6,0,0,1-6.1,1.6,14.1,14.1,0,0,1-6.4-1.4,11.4,11.4,0,0,1-4.5-4,10,10,0,0,1-1.7-5.6,8.9,8.9,0,0,1,2-6.1q2-2.2,6.4-3.2a58.7,58.7,0,0,1,12.3-1h1.8V59.1q0-3.5-1.5-5.1t-4.9-1.6a15.6,15.6,0,0,0-4.2.6l-5.1,1.8a7.2,7.2,0,0,1-2.7.9,2.7,2.7,0,0,1-2.1-.9,3.6,3.6,0,0,1-.8-2.4,3.7,3.7,0,0,1,.6-2.1,5.8,5.8,0,0,1,2.1-1.7,23.5,23.5,0,0,1,6-2.2,31.1,31.1,0,0,1,6.9-.8Q174,45.5,177.6,49.2Zm-7.3,24.1a8.7,8.7,0,0,0,2.3-6.2V65.5h-1.3a49.7,49.7,0,0,0-7.5.4,7.3,7.3,0,0,0-3.8,1.5,3.9,3.9,0,0,0-1.2,3,4.9,4.9,0,0,0,1.6,3.8,5.7,5.7,0,0,0,4,1.5A7.7,7.7,0,0,0,170.3,73.3Z" transform="translate(-0.5 -0.5)" fill="#fff"/><path d="M218.7,49.1q3.1,3.6,3.1,10.9V77.7a4.2,4.2,0,0,1-1.2,3.2,4.5,4.5,0,0,1-3.3,1.2,4.6,4.6,0,0,1-3.3-1.2,4.1,4.1,0,0,1-1.2-3.2V60.5q0-4.1-1.5-6a6,6,0,0,0-4.9-1.9,8.2,8.2,0,0,0-6.2,2.4,9.1,9.1,0,0,0-2.3,6.6V77.7a4.1,4.1,0,0,1-1.2,3.2,4.6,4.6,0,0,1-3.3,1.2,4.5,4.5,0,0,1-3.3-1.2,4.2,4.2,0,0,1-1.2-3.2V49.8a4,4,0,0,1,1.2-3,4.6,4.6,0,0,1,3.3-1.2,4.3,4.3,0,0,1,3.1,1.1,3.8,3.8,0,0,1,1.2,2.9v1.9a12.2,12.2,0,0,1,4.8-4.5,14.5,14.5,0,0,1,6.8-1.6Q215.6,45.5,218.7,49.1Z" transform="translate(-0.5 -0.5)" fill="#fff"/><path d="M262.2,31.6a3.9,3.9,0,0,1,1.3,3V77.7a4,4,0,0,1-1.2,3.1,5.1,5.1,0,0,1-6.5,0,4,4,0,0,1-1.2-3.1V75.9a11.3,11.3,0,0,1-4.6,4.6,13.8,13.8,0,0,1-6.8,1.7,14.6,14.6,0,0,1-8.1-2.3,15.3,15.3,0,0,1-5.5-6.5,22.5,22.5,0,0,1-2-9.7,21.8,21.8,0,0,1,2-9.6,14.5,14.5,0,0,1,13.6-8.6,14.1,14.1,0,0,1,6.8,1.6,11,11,0,0,1,4.5,4.5V34.5a3.8,3.8,0,0,1,1.2-2.9,4.5,4.5,0,0,1,3.2-1.1A4.8,4.8,0,0,1,262.2,31.6Zm-10,40.6q2.3-3,2.3-8.4t-2.3-8.4a8,8,0,0,0-6.6-2.9,8.2,8.2,0,0,0-6.7,2.9q-2.4,2.9-2.4,8.3t2.4,8.5a8.9,8.9,0,0,0,13.3.1Z" transform="translate(-0.5 -0.5)" fill="#fff"/><path d="M315.5,46.3a3.9,3.9,0,0,1,2.1-.6,4.5,4.5,0,0,1,3,1.1,3.5,3.5,0,0,1,1.3,2.8,3.7,3.7,0,0,1-.4,1.7L301.9,92.5a4,4,0,0,1-3.8,2.4,4.4,4.4,0,0,1-2.9-1,3.3,3.3,0,0,1-1.3-2.6,4.6,4.6,0,0,1,.4-1.8l4.9-10.3L285.8,51.3a3.6,3.6,0,0,1-.4-1.7,3.5,3.5,0,0,1,1.4-2.8,4.9,4.9,0,0,1,3.2-1.2,4.2,4.2,0,0,1,2.2.6,4.1,4.1,0,0,1,1.6,1.9L304,70.4l10-22.2A4.2,4.2,0,0,1,315.5,46.3Z" transform="translate(-0.5 -0.5)" fill="#fff"/><path d="M331.9,79.9a15.4,15.4,0,0,1-6.3-6.4,20.3,20.3,0,0,1-2.2-9.7,20.1,20.1,0,0,1,2.2-9.7,15.5,15.5,0,0,1,6.3-6.4,21.2,21.2,0,0,1,18.9,0,15.3,15.3,0,0,1,6.3,6.4,20.4,20.4,0,0,1,2.2,9.7,20.6,20.6,0,0,1-2.2,9.7,15.2,15.2,0,0,1-6.3,6.4,21.2,21.2,0,0,1-18.9,0Zm16.1-7.6q2.3-2.9,2.3-8.5t-2.3-8.5a7.9,7.9,0,0,0-6.6-2.9,8,8,0,0,0-6.7,2.9q-2.3,2.9-2.3,8.5t2.3,8.5a8,8,0,0,0,6.6,2.9A8.1,8.1,0,0,0,347.9,72.3Z" transform="translate(-0.5 -0.5)" fill="#fff"/><path d="M396.3,46.8a4.1,4.1,0,0,1,1.2,3.1V77.8a3.9,3.9,0,0,1-1.3,3A4.7,4.7,0,0,1,393,82a4.3,4.3,0,0,1-3.1-1.1,3.8,3.8,0,0,1-1.2-3V76.2a11.5,11.5,0,0,1-4.5,4.4,12.9,12.9,0,0,1-6.3,1.5q-13,0-13-14.5V49.9a4,4,0,0,1,1.2-3.1,4.5,4.5,0,0,1,3.2-1.2,4.6,4.6,0,0,1,3.3,1.2,4.1,4.1,0,0,1,1.2,3.1V67.7q0,3.7,1.5,5.5a5.9,5.9,0,0,0,4.8,1.8,7.8,7.8,0,0,0,6-2.5,9.4,9.4,0,0,0,2.3-6.6V49.9a4,4,0,0,1,1.2-3.1,4.5,4.5,0,0,1,3.2-1.2A4.6,4.6,0,0,1,396.3,46.8Z" transform="translate(-0.5 -0.5)" fill="#fff"/><path d="M428.1,46.5a3.5,3.5,0,0,1,1.1,2.8,3.9,3.9,0,0,1-.9,2.9,5.7,5.7,0,0,1-3.4,1.2l-2.2.2q-4.2.4-6.2,2.9a9.4,9.4,0,0,0-2,6.1V77.7a4,4,0,0,1-1.3,3.2,4.8,4.8,0,0,1-3.2,1.1,4.7,4.7,0,0,1-3.2-1.1,4.1,4.1,0,0,1-1.3-3.2V49.8a3.9,3.9,0,0,1,1.3-3.1,4.6,4.6,0,0,1,3.1-1.1,4.3,4.3,0,0,1,3,1,3.8,3.8,0,0,1,1.2,3v2.9a10.6,10.6,0,0,1,4.1-4.9,12.5,12.5,0,0,1,6-1.9h1A3.9,3.9,0,0,1,428.1,46.5Z" transform="translate(-0.5 -0.5)" fill="#fff"/><path d="M462.6,39.5a7.9,7.9,0,0,0-1.5,5.2v1.7h6.1q4,0,4,3.4t-4,3.4h-6.1V77.7a3.9,3.9,0,0,1-1.3,3.2,4.8,4.8,0,0,1-3.2,1.1,4.9,4.9,0,0,1-3.2-1.1,3.9,3.9,0,0,1-1.3-3.2V53.1h-3.6q-4,0-4-3.4t4-3.4h3.6v-.5q0-6.8,3.6-10.6t10-4.4h1.9q2.9-.2,4.1.6a2.9,2.9,0,0,1,1.2,2.6q0,3.1-3.5,3.5h-1.9A6.6,6.6,0,0,0,462.6,39.5Z" transform="translate(-0.5 -0.5)" fill="#fff"/><path d="M499.8,49.2q3.6,3.6,3.6,11.1V77.8a4.1,4.1,0,0,1-1.2,3.1,4.4,4.4,0,0,1-3.2,1.1,4.2,4.2,0,0,1-3.1-1.2,4,4,0,0,1-1.2-3V76.2a9.4,9.4,0,0,1-3.9,4.4,11.6,11.6,0,0,1-6.1,1.6,14.1,14.1,0,0,1-6.4-1.4,11.4,11.4,0,0,1-4.5-4,10,10,0,0,1-1.7-5.6,8.9,8.9,0,0,1,2-6.1q2-2.2,6.4-3.2a58.7,58.7,0,0,1,12.3-1h1.8V59.1q0-3.5-1.5-5.1t-4.9-1.6a15.6,15.6,0,0,0-4.2.6l-5.1,1.8a7.2,7.2,0,0,1-2.7.9,2.7,2.7,0,0,1-2.1-.9,3.6,3.6,0,0,1-.8-2.4,3.7,3.7,0,0,1,.6-2.1,5.8,5.8,0,0,1,2.1-1.7,23.5,23.5,0,0,1,6-2.2,31,31,0,0,1,6.9-.8Q496.3,45.5,499.8,49.2Zm-7.3,24.1a8.7,8.7,0,0,0,2.3-6.2V65.5h-1.3a49.6,49.6,0,0,0-7.5.4,7.3,7.3,0,0,0-3.8,1.5,3.9,3.9,0,0,0-1.2,3,4.9,4.9,0,0,0,1.6,3.8,5.7,5.7,0,0,0,4,1.5A7.7,7.7,0,0,0,492.6,73.3Z" transform="translate(-0.5 -0.5)" fill="#fff"/><path d="M560,48.9Q563,52.4,563,60V77.7a4.1,4.1,0,0,1-1.3,3.2,4.8,4.8,0,0,1-3.3,1.1,4.7,4.7,0,0,1-3.2-1.1,4.1,4.1,0,0,1-1.3-3.2V60q0-4-1.4-5.7a5.3,5.3,0,0,0-4.3-1.7,7.1,7.1,0,0,0-5.6,2.4,9.7,9.7,0,0,0-2.1,6.6V77.7a4.1,4.1,0,0,1-1.3,3.2,4.7,4.7,0,0,1-3.2,1.1,4.8,4.8,0,0,1-3.2-1.1,4,4,0,0,1-1.3-3.2V60q0-4-1.4-5.7a5.3,5.3,0,0,0-4.3-1.7,6.9,6.9,0,0,0-5.6,2.4,9.8,9.8,0,0,0-2.1,6.6V77.7a4,4,0,0,1-1.3,3.2,4.8,4.8,0,0,1-3.2,1.1,4.7,4.7,0,0,1-3.2-1.1,4.1,4.1,0,0,1-1.3-3.2V49.8a3.8,3.8,0,0,1,1.3-3.1,4.9,4.9,0,0,1,3.2-1.1,4.5,4.5,0,0,1,3.1,1,3.8,3.8,0,0,1,1.2,3v1.7a11.3,11.3,0,0,1,4.4-4.4,13.1,13.1,0,0,1,6.4-1.5q7.9,0,10.6,6.6a11.9,11.9,0,0,1,4.7-4.8,13.6,13.6,0,0,1,7-1.8Q556.9,45.5,560,48.9Z" transform="translate(-0.5 -0.5)" fill="#fff"/><path d="M571.3,37.9a4.5,4.5,0,0,1-1.4-3.5,4.4,4.4,0,0,1,1.4-3.5,6.4,6.4,0,0,1,7.7,0,4.4,4.4,0,0,1,1.5,3.5,4.5,4.5,0,0,1-1.4,3.5,6.3,6.3,0,0,1-7.8,0Zm.7,43a4.1,4.1,0,0,1-1.3-3.2V49.9a3.9,3.9,0,0,1,1.3-3.2,4.7,4.7,0,0,1,3.2-1.1,4.9,4.9,0,0,1,3.2,1.1,3.9,3.9,0,0,1,1.3,3.2V77.7a4,4,0,0,1-1.3,3.2,4.8,4.8,0,0,1-3.2,1.1A4.7,4.7,0,0,1,572,80.9Z" transform="translate(-0.5 -0.5)" fill="#fff"/><path d="M588.8,80.9a4.1,4.1,0,0,1-1.3-3.2v-43a3.9,3.9,0,0,1,1.3-3.2,4.7,4.7,0,0,1,3.2-1.1,4.9,4.9,0,0,1,3.2,1.1,3.9,3.9,0,0,1,1.3,3.2v43a4,4,0,0,1-1.3,3.2A4.8,4.8,0,0,1,592,82,4.7,4.7,0,0,1,588.8,80.9Z" transform="translate(-0.5 -0.5)" fill="#fff"/><path d="M630.5,46.3a3.9,3.9,0,0,1,2.1-.6,4.5,4.5,0,0,1,3,1.1,3.5,3.5,0,0,1,1.3,2.8,3.7,3.7,0,0,1-.4,1.7L616.9,92.5a4,4,0,0,1-3.8,2.4,4.4,4.4,0,0,1-2.9-1,3.3,3.3,0,0,1-1.3-2.6,4.6,4.6,0,0,1,.4-1.8l4.9-10.3L600.8,51.3a3.6,3.6,0,0,1-.4-1.7,3.5,3.5,0,0,1,1.4-2.8,4.9,4.9,0,0,1,3.2-1.2,4.2,4.2,0,0,1,2.2.6,4.1,4.1,0,0,1,1.6,1.9L619,70.4l10-22.2A4.2,4.2,0,0,1,630.5,46.3Z" transform="translate(-0.5 -0.5)" fill="#fff"/><path d="M138.7,122.2q3.6,3.6,3.6,11.1v17.6a4.1,4.1,0,0,1-1.2,3.1A4.4,4.4,0,0,1,138,155a4.2,4.2,0,0,1-3.1-1.2,4,4,0,0,1-1.2-3v-1.6a9.4,9.4,0,0,1-3.9,4.4,11.6,11.6,0,0,1-6.1,1.6,14.1,14.1,0,0,1-6.4-1.4,11.4,11.4,0,0,1-4.5-4,10,10,0,0,1-1.7-5.6,8.9,8.9,0,0,1,2-6.1q2-2.2,6.4-3.2a58.7,58.7,0,0,1,12.3-1h1.8v-1.7q0-3.5-1.5-5.1t-4.9-1.6a15.6,15.6,0,0,0-4.2.6l-5.1,1.8a7.2,7.2,0,0,1-2.7.9,2.7,2.7,0,0,1-2.1-.9,3.6,3.6,0,0,1-.8-2.4,3.7,3.7,0,0,1,.6-2.1,5.8,5.8,0,0,1,2.1-1.7,23.5,23.5,0,0,1,6-2.2,31.1,31.1,0,0,1,6.9-.8Q135.2,118.5,138.7,122.2Zm-7.3,24.1a8.7,8.7,0,0,0,2.3-6.2v-1.5h-1.3a49.7,49.7,0,0,0-7.5.4,7.3,7.3,0,0,0-3.8,1.5,3.9,3.9,0,0,0-1.2,3,4.9,4.9,0,0,0,1.6,3.8,5.7,5.7,0,0,0,4,1.5A7.7,7.7,0,0,0,131.4,146.3Z" transform="translate(-0.5 -0.5)" fill="#fff"/><path d="M178.4,122.1q3.1,3.6,3.1,10.9v17.7a4.2,4.2,0,0,1-1.2,3.2,4.5,4.5,0,0,1-3.3,1.2,4.6,4.6,0,0,1-3.3-1.2,4.1,4.1,0,0,1-1.2-3.2V133.5q0-4.1-1.5-6a6,6,0,0,0-4.9-1.9,8.2,8.2,0,0,0-6.2,2.4,9.1,9.1,0,0,0-2.3,6.6v16.1a4.1,4.1,0,0,1-1.2,3.2A4.6,4.6,0,0,1,153,155a4.5,4.5,0,0,1-3.3-1.2,4.2,4.2,0,0,1-1.2-3.2V122.8a4,4,0,0,1,1.2-3,4.6,4.6,0,0,1,3.3-1.2,4.3,4.3,0,0,1,3.1,1.1,3.8,3.8,0,0,1,1.2,2.9v1.9a12.2,12.2,0,0,1,4.8-4.5,14.5,14.5,0,0,1,6.8-1.6Q175.3,118.5,178.4,122.1Z" transform="translate(-0.5 -0.5)" fill="#fff"/><path d="M221.9,104.6a3.9,3.9,0,0,1,1.3,3v43.1a4,4,0,0,1-1.2,3.1,5.1,5.1,0,0,1-6.5,0,4,4,0,0,1-1.2-3.1v-1.8a11.3,11.3,0,0,1-4.6,4.6,13.8,13.8,0,0,1-6.8,1.7,14.6,14.6,0,0,1-8.1-2.3,15.3,15.3,0,0,1-5.5-6.5,22.5,22.5,0,0,1-2-9.7,21.8,21.8,0,0,1,2-9.6,14.5,14.5,0,0,1,13.6-8.6,14.1,14.1,0,0,1,6.8,1.6,11,11,0,0,1,4.5,4.5V107.5a3.8,3.8,0,0,1,1.2-2.9,4.5,4.5,0,0,1,3.2-1.1A4.8,4.8,0,0,1,221.9,104.6Zm-10,40.6q2.3-3,2.3-8.4t-2.3-8.4a8,8,0,0,0-6.6-2.9,8.2,8.2,0,0,0-6.7,2.9q-2.4,2.9-2.4,8.3t2.4,8.5a8.9,8.9,0,0,0,13.3.1Z" transform="translate(-0.5 -0.5)" fill="#fff"/><path d="M249.2,152.1a4.3,4.3,0,0,1-2.3-3.9,3.4,3.4,0,0,1,.8-2.3,2.5,2.5,0,0,1,1.9-.9,8,8,0,0,1,3.4,1.2,31.5,31.5,0,0,0,4.2,1.7,17.1,17.1,0,0,0,4.9.6,9.2,9.2,0,0,0,4.7-1,3.1,3.1,0,0,0,1.7-2.8,2.7,2.7,0,0,0-.7-1.9,6.3,6.3,0,0,0-2.4-1.3l-5.4-1.4q-6.4-1.3-9.2-3.7a8.2,8.2,0,0,1-2.8-6.6,9.4,9.4,0,0,1,1.9-5.7,12.1,12.1,0,0,1,5.1-4,18.8,18.8,0,0,1,7.5-1.4,22.3,22.3,0,0,1,5.8.8,17.8,17.8,0,0,1,5,2.2,4.3,4.3,0,0,1,2.3,3.8,3.7,3.7,0,0,1-.8,2.4,2.4,2.4,0,0,1-1.9,1,3.9,3.9,0,0,1-1.5-.3l-1.9-1-3.6-1.6a11.2,11.2,0,0,0-3.7-.5,7.3,7.3,0,0,0-4.2,1.1,3.4,3.4,0,0,0-1.5,3A3,3,0,0,0,258,132a22.6,22.6,0,0,0,6.1,1.9,35,35,0,0,1,7.6,2.3,8.9,8.9,0,0,1,3.9,3.2,9.4,9.4,0,0,1,1.2,5,9.2,9.2,0,0,1-4.1,7.8q-4.1,3-10.8,3T249.2,152.1Z" transform="translate(-0.5 -0.5)" fill="#fff"/><path d="M308.8,122.2q3.6,3.6,3.6,11.1v17.6a4.1,4.1,0,0,1-1.2,3.1A4.4,4.4,0,0,1,308,155a4.2,4.2,0,0,1-3.1-1.2,4,4,0,0,1-1.2-3v-1.6a9.4,9.4,0,0,1-3.9,4.4,11.6,11.6,0,0,1-6.1,1.6,14.1,14.1,0,0,1-6.4-1.4,11.4,11.4,0,0,1-4.5-4,10,10,0,0,1-1.7-5.6,8.9,8.9,0,0,1,2-6.1q2-2.2,6.4-3.2a58.7,58.7,0,0,1,12.3-1h1.8v-1.7q0-3.5-1.5-5.1t-4.9-1.6a15.6,15.6,0,0,0-4.2.6l-5.1,1.8a7.2,7.2,0,0,1-2.7.9,2.7,2.7,0,0,1-2.1-.9,3.6,3.6,0,0,1-.8-2.4,3.7,3.7,0,0,1,.6-2.1,5.8,5.8,0,0,1,2.1-1.7,23.5,23.5,0,0,1,6-2.2,31.1,31.1,0,0,1,6.9-.8Q305.2,118.5,308.8,122.2Zm-7.3,24.1a8.7,8.7,0,0,0,2.3-6.2v-1.5h-1.3a49.7,49.7,0,0,0-7.5.4,7.3,7.3,0,0,0-3.8,1.5,3.9,3.9,0,0,0-1.2,3,4.9,4.9,0,0,0,1.6,3.8,5.7,5.7,0,0,0,4,1.5A7.7,7.7,0,0,0,301.5,146.3Z" transform="translate(-0.5 -0.5)" fill="#fff"/><path d="M346.1,119.3a3.8,3.8,0,0,1,2.1-.6,4.5,4.5,0,0,1,3,1.1,3.5,3.5,0,0,1,1.3,2.8,3.8,3.8,0,0,1-.4,1.7l-13.3,27.9a4.7,4.7,0,0,1-1.8,2.1,5,5,0,0,1-2.6.7,5.2,5.2,0,0,1-2.6-.7,4.6,4.6,0,0,1-1.9-2.1l-13.4-27.9a3.6,3.6,0,0,1-.4-1.7,3.5,3.5,0,0,1,1.4-2.8,4.9,4.9,0,0,1,3.2-1.2,4,4,0,0,1,3.8,2.5l10.1,22.2,10-22.2A4.4,4.4,0,0,1,346.1,119.3Z" transform="translate(-0.5 -0.5)" fill="#fff"/><path d="M385.7,145.9a3.9,3.9,0,0,1,.8,2.5q0,2.2-2.7,3.7a24.1,24.1,0,0,1-5.5,2.2,22.9,22.9,0,0,1-5.9.8q-8.5,0-13.5-4.9t-5-13.4a20.5,20.5,0,0,1,2.2-9.6,15.7,15.7,0,0,1,6.1-6.5,17.2,17.2,0,0,1,8.9-2.3,16,16,0,0,1,8.3,2.1,14.2,14.2,0,0,1,5.5,5.9,19.6,19.6,0,0,1,1.9,9q0,3.1-2.7,3.1H362.8q.4,5,2.8,7.3t6.9,2.3a13.1,13.1,0,0,0,4.1-.6l4-1.6a8,8,0,0,1,3.2-1.2A2.4,2.4,0,0,1,385.7,145.9Zm-20.3-18.7a10.9,10.9,0,0,0-2.6,6.6h16.3q-.1-4.4-2.2-6.7a7.1,7.1,0,0,0-5.6-2.3A7.7,7.7,0,0,0,365.4,127.2Z" transform="translate(-0.5 -0.5)" fill="#fff"/><path d="M436.9,122.2q3.6,3.6,3.6,11.1v17.6a4.1,4.1,0,0,1-1.2,3.1,4.4,4.4,0,0,1-3.2,1.1,4.2,4.2,0,0,1-3.1-1.2,4,4,0,0,1-1.2-3v-1.6a9.4,9.4,0,0,1-3.9,4.4,11.6,11.6,0,0,1-6.1,1.6,14.1,14.1,0,0,1-6.4-1.4,11.4,11.4,0,0,1-4.5-4,10,10,0,0,1-1.7-5.6,8.9,8.9,0,0,1,2-6.1q2-2.2,6.4-3.2a58.7,58.7,0,0,1,12.3-1h1.8v-1.7q0-3.5-1.5-5.1t-4.9-1.6a15.6,15.6,0,0,0-4.2.6l-5.1,1.8a7.2,7.2,0,0,1-2.7.9,2.7,2.7,0,0,1-2.1-.9,3.6,3.6,0,0,1-.8-2.4,3.7,3.7,0,0,1,.6-2.1,5.8,5.8,0,0,1,2.1-1.7,23.5,23.5,0,0,1,6-2.2,31,31,0,0,1,6.9-.8Q433.4,118.5,436.9,122.2Zm-7.3,24.1a8.7,8.7,0,0,0,2.3-6.2v-1.5h-1.3a49.6,49.6,0,0,0-7.5.4,7.3,7.3,0,0,0-3.8,1.5,3.9,3.9,0,0,0-1.2,3,4.9,4.9,0,0,0,1.6,3.8,5.7,5.7,0,0,0,4,1.5A7.7,7.7,0,0,0,429.7,146.3Z" transform="translate(-0.5 -0.5)" fill="#fff"/><path d="M467.5,153.9a4.1,4.1,0,0,1-1.3-3.2v-43a3.9,3.9,0,0,1,1.3-3.2,4.7,4.7,0,0,1,3.2-1.1,4.9,4.9,0,0,1,3.2,1.1,3.9,3.9,0,0,1,1.3,3.2v43a4,4,0,0,1-1.3,3.2,4.8,4.8,0,0,1-3.2,1.1A4.7,4.7,0,0,1,467.5,153.9Z" transform="translate(-0.5 -0.5)" fill="#fff"/><path d="M483,110.9a4.5,4.5,0,0,1-1.4-3.5A4.4,4.4,0,0,1,483,104a6.4,6.4,0,0,1,7.7,0,4.4,4.4,0,0,1,1.5,3.5,4.5,4.5,0,0,1-1.4,3.5,6.3,6.3,0,0,1-7.8,0Zm.7,43a4.1,4.1,0,0,1-1.3-3.2V122.9a3.9,3.9,0,0,1,1.3-3.2,4.7,4.7,0,0,1,3.2-1.1,4.9,4.9,0,0,1,3.2,1.1,3.9,3.9,0,0,1,1.3,3.2v27.8a4,4,0,0,1-1.3,3.2,4.8,4.8,0,0,1-3.2,1.1A4.7,4.7,0,0,1,483.7,153.9Z" transform="translate(-0.5 -0.5)" fill="#fff"/><path d="M512.2,112.5a7.9,7.9,0,0,0-1.5,5.2v1.7h6.1q4,0,4,3.4t-4,3.4h-6.1v24.6a3.9,3.9,0,0,1-1.3,3.2,4.8,4.8,0,0,1-3.2,1.1,4.9,4.9,0,0,1-3.2-1.1,3.9,3.9,0,0,1-1.3-3.2V126.1h-3.6q-4,0-4-3.4t4-3.4h3.6v-.5q0-6.8,3.6-10.6t10-4.4h1.9q2.9-.2,4.1.6a2.9,2.9,0,0,1,1.2,2.6q0,3.1-3.5,3.5H517A6.6,6.6,0,0,0,512.2,112.5Z" transform="translate(-0.5 -0.5)" fill="#fff"/><path d="M553.1,145.9a3.9,3.9,0,0,1,.8,2.5q0,2.2-2.7,3.7a24.1,24.1,0,0,1-5.5,2.2,22.9,22.9,0,0,1-5.9.8q-8.5,0-13.5-4.9t-5-13.4a20.5,20.5,0,0,1,2.2-9.6,15.7,15.7,0,0,1,6.1-6.5,17.2,17.2,0,0,1,8.9-2.3,16,16,0,0,1,8.3,2.1,14.2,14.2,0,0,1,5.5,5.9,19.6,19.6,0,0,1,1.9,9q0,3.1-2.7,3.1H530.1q.4,5,2.8,7.3t6.9,2.3a13.1,13.1,0,0,0,4.1-.6l4-1.6a8,8,0,0,1,3.2-1.2A2.4,2.4,0,0,1,553.1,145.9Zm-20.3-18.7a10.9,10.9,0,0,0-2.6,6.6h16.3q-.1-4.4-2.2-6.7a7.1,7.1,0,0,0-5.6-2.3A7.7,7.7,0,0,0,532.8,127.2Z" transform="translate(-0.5 -0.5)" fill="#fff"/></g><polygon id="border" points="663 137 577.5 137 577.5 134 660 134 660 3 3 3 3 134 86.5 134 86.5 137 0 137 0 0 663 0 663 137" fill="#ff534e"/></svg>