<svg id="Layer_2" data-name="Layer 2" xmlns="http://www.w3.org/2000/svg" width="256" height="256" viewBox="0 0 256 256"><title>256</title><path d="M128,107c-13.6,0-43.8,7.9-48.4,29s-7.3,19.2-39.4,36-20.5,81.6,12.5,81.6,45.8-26.3,75.3-26.3,42.3,26.3,75.3,26.3,44.6-64.8,12.5-81.6-34.8-15-39.4-36S141.6,107,128,107Z" fill="#f3ffe0"/><ellipse cx="83.2" cy="45" rx="28.3" ry="42.7" fill="#5494b3"/><ellipse cx="172.8" cy="45" rx="28.3" ry="42.7" fill="#5494b3"/><circle cx="225.8" cy="124.5" r="30.2" fill="#f3ffe0"/><circle cx="30.2" cy="124.5" r="30.2" fill="#f3ffe0"/><g id="_0DjCsW" data-name="0DjCsW"><path d="M128,151.7l1.1-1.6a26.4,26.4,0,0,1,9.1-7.8,21.8,21.8,0,0,1,7.6-2.3,24.6,24.6,0,0,1,15.7,3.3,22.5,22.5,0,0,1,10.2,13.1,26,26,0,0,1,1.1,9.2,28.9,28.9,0,0,1-6.1,16.6,85.2,85.2,0,0,1-8.4,9.2c-3.3,3.1-6.7,6.1-10.1,9s-6.5,5.6-9.5,8.5a64.2,64.2,0,0,0-5.6,6l-2.7,3.5-1.5,1.8a1.1,1.1,0,0,1-1.8-.1,79.5,79.5,0,0,0-10.7-12.4c-3.6-3.5-7.4-6.8-11.2-10s-7.1-6.2-10.5-9.5a42.1,42.1,0,0,1-5.8-6.8,33.5,33.5,0,0,1-5.1-12,27.4,27.4,0,0,1-.5-8c.7-7.5,4.4-13.3,10.6-17.6a22.8,22.8,0,0,1,9.6-3.8,23.1,23.1,0,0,1,12.2,1.4,25.1,25.1,0,0,1,12.1,9.8l.2.3Z" fill="#ff534e"/></g><circle cx="30.2" cy="124.5" r="17.6" fill="#5494b3"/><circle cx="225.8" cy="124.5" r="17.6" fill="#5494b3"/></svg>