<svg id="Layer_2" data-name="Layer 2" xmlns="http://www.w3.org/2000/svg" width="16" height="16" viewBox="0 0 16 16"><title>16</title><g id="_0DjCsW" data-name="0DjCsW"><path d="M8,2.9l.2-.3A4.7,4.7,0,0,1,9.8,1.2L11.2.8a4.4,4.4,0,0,1,2.8.6,4,4,0,0,1,1.8,2.3A4.6,4.6,0,0,1,16,5.4a5.1,5.1,0,0,1-1.1,3L13.4,10l-1.8,1.6L9.9,13.1l-1,1.1-.5.6-.3.3a.2.2,0,0,1-.3,0,14.2,14.2,0,0,0-1.9-2.2l-2-1.8L2,9.4,1,8.2A6,6,0,0,1,.1,6.1,4.9,4.9,0,0,1,0,4.6,4.1,4.1,0,0,1,1.9,1.5,4.1,4.1,0,0,1,3.6.8a4.1,4.1,0,0,1,2.2.2A4.5,4.5,0,0,1,7.9,2.8H8Z" fill="#ff534e"/></g></svg>