<svg id="Layer_2" data-name="Layer 2" xmlns="http://www.w3.org/2000/svg" width="64" height="64" viewBox="0 0 64 64"><title>64</title><path d="M31.5,27.3c-3.4,0-11,2-12.1,7.3s-1.8,4.8-9.9,9S4.4,63.9,12.7,63.9s11.5-6.6,18.8-6.6,10.6,6.6,18.8,6.6,11.1-16.2,3.1-20.4-8.7-3.7-9.9-9S34.9,27.3,31.5,27.3Z" fill="#f3ffe0"/><ellipse cx="20.3" cy="11.8" rx="7.1" ry="10.7" fill="#5494b3"/><ellipse cx="42.7" cy="11.8" rx="7.1" ry="10.7" fill="#5494b3"/><circle cx="55.9" cy="31.6" r="7.6" fill="#f3ffe0"/><circle cx="7.1" cy="31.6" r="7.6" fill="#f3ffe0"/><g id="_0DjCsW" data-name="0DjCsW"><path d="M31.5,38.4l.3-.4A6.6,6.6,0,0,1,34,36.1a5.5,5.5,0,0,1,1.9-.6,6.1,6.1,0,0,1,3.9.8,5.6,5.6,0,0,1,2.6,3.3,6.5,6.5,0,0,1,.3,2.3,7.2,7.2,0,0,1-1.5,4.2,21.3,21.3,0,0,1-2.1,2.3l-2.5,2.3-2.4,2.1-1.4,1.5-.7.9-.4.5a.3.3,0,0,1-.4,0,19.9,19.9,0,0,0-2.7-3.1L25.8,50l-2.6-2.4a10.5,10.5,0,0,1-1.4-1.7,8.4,8.4,0,0,1-1.3-3,6.9,6.9,0,0,1-.1-2A5.8,5.8,0,0,1,23,36.5a5.7,5.7,0,0,1,2.4-1,5.8,5.8,0,0,1,3,.3,6.3,6.3,0,0,1,3,2.5h.1Z" fill="#ff534e"/></g><circle cx="7.1" cy="31.6" r="4.4" fill="#5494b3"/><circle cx="55.9" cy="31.6" r="4.4" fill="#5494b3"/></svg>