<svg id="Layer_2" data-name="Layer 2" xmlns="http://www.w3.org/2000/svg" width="32" height="32" viewBox="0 0 32 32"><title>32</title><g id="_0DjCsW" data-name="0DjCsW"><path d="M16,5.8l.4-.6a9.4,9.4,0,0,1,3.2-2.8,7.8,7.8,0,0,1,2.7-.8,8.8,8.8,0,0,1,5.6,1.2,8,8,0,0,1,3.7,4.7,9.3,9.3,0,0,1,.4,3.3,10.3,10.3,0,0,1-2.2,5.9,30.4,30.4,0,0,1-3,3.3l-3.6,3.2-3.4,3a22.9,22.9,0,0,0-2,2.1l-1,1.2-.6.7a.4.4,0,0,1-.6,0,28.4,28.4,0,0,0-3.8-4.4l-4-3.6L4.1,18.9A15,15,0,0,1,2,16.4,12,12,0,0,1,.2,12.1,9.8,9.8,0,0,1,0,9.3,8.3,8.3,0,0,1,3.8,3,8.1,8.1,0,0,1,7.2,1.7a8.3,8.3,0,0,1,4.4.5,9,9,0,0,1,4.3,3.5H16Z" fill="#ff534e"/></g></svg>